<svg xmlns="http://www.w3.org/2000/svg" data-name="Layer 1" width="903.815" height="419"><path d="M854.206 417.135c-7.669-.319-14.656-3.414-17.816-8.208q-.222-.337-.418-.683c-1.154-2.043-1.514-4.392-.253-6.405s4.414-3.542 7.579-3.224 5.636 2.842 4.326 4.84c-.292-4.038-.532-8.281 2.724-11.796a11.897 11.897 0 0 1 6.665-3.445c6.56-1.154 10.916 2.556 11.788 6.301.644 2.765-.245 5.577-1.13 8.31 2.728-3.226 9.218-4.661 14.187-3.137s7.727 5.794 6.03 9.336c-2.001 4.173-8.67 6.33-14.863 7.47-5.115.941-12.785.891-18.82.64ZM587.206 417.135c-7.669-.319-14.656-3.414-17.816-8.208q-.222-.337-.418-.683c-1.154-2.043-1.514-4.392-.253-6.405s4.414-3.542 7.579-3.224 5.636 2.842 4.326 4.84c-.292-4.038-.532-8.281 2.724-11.796a11.897 11.897 0 0 1 6.665-3.445c6.56-1.154 10.916 2.556 11.788 6.301.644 2.765-.245 5.577-1.13 8.31 2.728-3.226 9.218-4.661 14.187-3.137s7.727 5.794 6.03 9.336c-2.001 4.173-8.67 6.33-14.863 7.47-5.115.941-12.785.891-18.82.64ZM341.5 176.5h-55A16.519 16.519 0 0 1 270 160V57a16.519 16.519 0 0 1 16.5-16.5h55A16.519 16.519 0 0 1 358 57v103a16.519 16.519 0 0 1-16.5 16.5Z" fill="#f2f2f2"/><path fill="#ffb8b8" d="M679.306 406.177h-12.259l-5.833-47.288 18.094.001-.002 47.287z"/><path d="m682.433 418.062-39.53-.002v-.5a15.386 15.386 0 0 1 15.386-15.386h24.145Z" fill="#2f2e41"/><path fill="#ffb8b8" d="m816.262 394.707-11.557 4.092-21.285-42.627 17.056-6.04 15.786 44.575z"/><path d="m823.176 404.865-37.262 13.197-.167-.472a15.386 15.386 0 0 1 9.366-19.64h.001l22.76-8.06ZM678.965 390.3a4.613 4.613 0 0 1-.82-.074l-14.992-2.726a4.521 4.521 0 0 1-3.698-4.337c-2.18-100.914 8.535-168.728 31.844-217.336a4.473 4.473 0 0 1 4.69-2.481l53.912 7.783a4.505 4.505 0 0 1 3.828 3.947l4.754 41.904a3.546 3.546 0 0 0 .142.666l51.689 154.869a4.52 4.52 0 0 1-2.866 5.63l-13.968 4.657a4.523 4.523 0 0 1-5.449-2.257l-69.918-131.837a1.5 1.5 0 0 0-2.807.35l-31.961 137.705a4.482 4.482 0 0 1-4.38 3.537Z" fill="#2f2e41"/><path d="M636.357 84.097a10.527 10.527 0 0 1 .24 1.64l42.957 24.782 10.441-6.01 11.131 14.572-17.45 12.437a8 8 0 0 1-9.598-.234L629.781 96.34a10.497 10.497 0 1 1 6.576-12.242Z" fill="#ffb8b8"/><path d="M680.144 108.042a4.495 4.495 0 0 1 2.211-3.025l19.713-11.022a12.497 12.497 0 0 1 15.327 19.744l-15.717 16.32a4.5 4.5 0 0 1-6.804-.372l-13.884-17.994a4.495 4.495 0 0 1-.846-3.65Z" fill="#7f5af0"/><circle cx="726.05" cy="57.066" r="24.561" fill="#ffb8b8"/><path d="M749.966 176.368a4.5 4.5 0 0 1-.728-.06l-53.153-8.713a4.5 4.5 0 0 1-3.674-5.374l2.586-12.191c-1.324-1.975-12.103-19.146 1.025-35.275a22.01 22.01 0 0 1 20.434-22.922l27.469-2.087a22.127 22.127 0 0 1 23.022 27.885l-12.593 55.237a4.51 4.51 0 0 1-4.388 3.5Z" fill="#7f5af0"/><path d="M799.602 222.558a10.743 10.743 0 0 0-4.27-15.909l-30.264-93.047-17.538 8.322 33.113 90.599a10.8 10.8 0 0 0 18.96 10.035Z" fill="#ffb8b8"/><path d="m771.762 129.093-23.288 7.035a4.817 4.817 0 0 1-6.158-3.908l-3.536-23.995a13.377 13.377 0 0 1 25.634-7.662l10.313 21.866a4.817 4.817 0 0 1-2.965 6.664Z" fill="#7f5af0"/><path d="M702.175 58.014a30.443 30.443 0 0 0 32.211-6.764c-2.576 6.807-1.856 35.674-1.856 35.674s22.847-10.847 25.946-12.743c18.307-11.205-6.942-59.943-27.946-52.257-3.558 1.302-6.529 2.834-7.968 6.338-3.136-3.869-9.073-4.708-13.64-2.72s-7.813 6.293-9.559 10.957a27.407 27.407 0 0 0 1.993 23.114Z"/><path d="M595 0H33A33.032 33.032 0 0 0 0 33v154a33.032 33.032 0 0 0 33 33h562a33.032 33.032 0 0 0 33-33V33a33.032 33.032 0 0 0-33-33Zm31 187a31.04 31.04 0 0 1-31 31H33a31.04 31.04 0 0 1-31-31V33A31.04 31.04 0 0 1 33 2h562a31.04 31.04 0 0 1 31 31Z" fill="#3f3d56"/><path d="M88.75 145.5a12 12 0 1 1 12-12 12.014 12.014 0 0 1-12 12Zm0-22a10 10 0 1 0 10 10 10.011 10.011 0 0 0-10-10ZM88.356 118.5a1 1 0 0 1-1-1V106a1 1 0 0 1 2 0v11.5a1 1 0 0 1-1 1ZM72.75 134.106h-11.5a1 1 0 0 1 0-2h11.5a1 1 0 1 1 0 2ZM114.75 134.106h-11.5a1 1 0 0 1 0-2h11.5a1 1 0 0 1 0 2ZM102.934 123.172a1 1 0 0 1-.696-1.717l4.816-4.673a1 1 0 0 1 1.392 1.436l-4.816 4.672a.996.996 0 0 1-.696.282ZM73.566 123.172a.997.997 0 0 1-.696-.282l-4.816-4.672a1 1 0 1 1 1.392-1.436l4.816 4.673a1 1 0 0 1-.696 1.717ZM69.75 150.5a1 1 0 0 1-.718-1.697l4.816-4.96a1 1 0 0 1 1.435 1.394l-4.815 4.96a.999.999 0 0 1-.718.303ZM108.75 151.5a.995.995 0 0 1-.716-.302l-5.815-5.96a1 1 0 1 1 1.43-1.396l5.817 5.96a1 1 0 0 1-.716 1.698ZM88.356 161.5a1 1 0 0 1-1-1V149a1 1 0 0 1 2 0v11.5a1 1 0 0 1-1 1ZM219.164 152.5h-33.382a13.002 13.002 0 0 1 0-26h2.553a15.707 15.707 0 0 1 14.138-9 15.866 15.866 0 0 1 15.697 15h.994a10.001 10.001 0 0 1 0 20Zm-33.382-24a11.002 11.002 0 0 0 0 22h33.382a8.002 8.002 0 0 0 0-16H217.2a1 1 0 0 1-1-1 13.881 13.881 0 0 0-13.727-14 13.725 13.725 0 0 0-12.575 8.395 1 1 0 0 1-.919.605ZM330.671 133.557l-.779-1.842a10.002 10.002 0 1 0-13.14-13.027l-1.849-.763a12.002 12.002 0 1 1 15.768 15.632Z" fill="#3f3d56"/><path d="M332.164 152.5h-33.382a13.002 13.002 0 0 1 0-26h2.553a15.707 15.707 0 0 1 14.138-9 15.866 15.866 0 0 1 15.697 15h.994a10.001 10.001 0 0 1 0 20Zm-33.382-24a11.002 11.002 0 0 0 0 22h33.382a8.002 8.002 0 0 0 0-16H330.2a1 1 0 0 1-1-1 13.881 13.881 0 0 0-13.727-14 13.725 13.725 0 0 0-12.575 8.395 1 1 0 0 1-.919.605ZM445.164 147.5h-4.014a1 1 0 0 1 0-2h4.014a8.002 8.002 0 0 0 0-16H443.2a1 1 0 0 1-1-1 13.881 13.881 0 0 0-13.727-14 13.725 13.725 0 0 0-12.575 8.395 1 1 0 0 1-.919.605h-3.197a11.002 11.002 0 0 0 0 22h3.1a1 1 0 0 1 0 2h-3.1a13.002 13.002 0 0 1 0-26h2.553a15.707 15.707 0 0 1 14.138-9 15.866 15.866 0 0 1 15.697 15h.994a10.001 10.001 0 0 1 0 20Z" fill="#3f3d56"/><path d="M428.307 151.817a1 1 0 0 1-1-1v-11.5a1 1 0 1 1 2 0v11.5a1 1 0 0 1-1 1ZM421.307 157.817a1 1 0 0 1-1-1v-11.5a1 1 0 1 1 2 0v11.5a1 1 0 0 1-1 1ZM435.307 160.817a1 1 0 0 1-1-1v-11.5a1 1 0 1 1 2 0v11.5a1 1 0 0 1-1 1ZM558.164 147.5h-4.014a1 1 0 0 1 0-2h4.014a8.002 8.002 0 0 0 0-16H556.2a1 1 0 0 1-1-1 13.881 13.881 0 0 0-13.727-14 13.725 13.725 0 0 0-12.575 8.395 1 1 0 0 1-.919.605h-3.197a11.002 11.002 0 0 0 0 22h3.1a1 1 0 1 1 0 2h-3.1a13.002 13.002 0 0 1 0-26h2.553a15.707 15.707 0 0 1 14.138-9 15.866 15.866 0 0 1 15.697 15h.994a10.001 10.001 0 0 1 0 20Z" fill="#3f3d56"/><circle cx="539.75" cy="142.75" r="2.25" fill="#3f3d56"/><circle cx="547.25" cy="145.75" r="2.25" fill="#3f3d56"/><circle cx="534.75" cy="149.25" r="2.25" fill="#3f3d56"/><circle cx="542.75" cy="154.25" r="2.25" fill="#3f3d56"/><path d="M117 71.5H59a8 8 0 0 1 0-16h58a8 8 0 0 1 0 16ZM230 71.5h-58a8 8 0 1 1 0-16h58a8 8 0 0 1 0 16ZM343 71.5h-58a8 8 0 1 1 0-16h58a8 8 0 0 1 0 16ZM456 71.5h-58a8 8 0 0 1 0-16h58a8 8 0 0 1 0 16ZM569 71.5h-58a8 8 0 0 1 0-16h58a8 8 0 0 1 0 16Z" fill="#7f5af0"/><path d="M142 165.5a1 1 0 0 1-1-1v-76a1 1 0 0 1 2 0v76a1 1 0 0 1-1 1ZM255 164.5a1 1 0 0 1-1-1v-76a1 1 0 0 1 2 0v76a1 1 0 0 1-1 1ZM374 164.5a1 1 0 0 1-1-1v-76a1 1 0 0 1 2 0v76a1 1 0 0 1-1 1ZM487 164.5a1 1 0 0 1-1-1v-76a1 1 0 0 1 2 0v76a1 1 0 0 1-1 1Z" fill="#e6e6e6"/><path d="M902.815 419h-381a1 1 0 1 1 0-2h381a1 1 0 0 1 0 2Z" fill="#3f3d56"/></svg>