<svg xmlns="http://www.w3.org/2000/svg" viewBox="0 0 512 512" style="enable-background:new 0 0 512 512" xml:space="preserve"><circle style="fill:#ffc61b" cx="256" cy="256" r="256"/><path style="fill:#eaa22f" d="M505.16 314.985 361.398 171.223 215.776 283.582l-61.487 61.58 160.134 160.134c94.277-22.009 168.519-96.113 190.737-190.311z"/><circle style="fill:#ff7f4f" cx="256" cy="256" r="122.397"/><path style="fill:#fff" d="M378.397 256c0 67.598-54.8 122.397-122.397 122.397S133.603 323.598 133.603 256h244.794z"/><path style="fill:#c92f00" d="M256 391.327c-74.619 0-135.327-60.707-135.327-135.327S181.381 120.673 256 120.673 391.327 181.381 391.327 256 330.619 391.327 256 391.327zm0-237.037c-56.082 0-101.71 45.628-101.71 101.71S199.918 357.71 256 357.71 357.71 312.082 357.71 256 312.082 154.29 256 154.29z"/><path style="fill:#930000" d="M256 120.673c-.193 0-.381.014-.574.014v33.616c.193-.002.381-.014.574-.014 56.082 0 101.71 45.628 101.71 101.71S312.082 357.71 256 357.71c-.193 0-.381-.014-.574-.014v33.616c.193 0 .381.014.574.014 74.619 0 135.327-60.707 135.327-135.327S330.619 120.673 256 120.673z"/><path style="fill:#386895" d="m318.861 193.05-75.435 57.959c-5.153 5.153-5.153 13.507 0 18.66 5.153 5.153 13.507 5.153 18.66 0l56.775-76.619z"/><path style="fill:#273b7a" d="M243.426 269.667c5.153 5.153 13.507 5.153 18.66 0l56.777-76.619-75.437 76.619z"/></svg>