<svg xmlns="http://www.w3.org/2000/svg" viewBox="0 0 332.598 332.598" style="enable-background:new 0 0 332.598 332.598" xml:space="preserve"><path style="fill:#9fcba5" d="M284.093 200.08c0 73.188-52.738 132.518-117.794 132.518S48.505 273.268 48.505 200.08c0-58.124 74.294-156.057 104.878-193.908 6.649-8.229 19.183-8.229 25.832 0 30.583 37.852 104.878 135.784 104.878 193.908z"/><path style="fill:#2b7b57" d="M88.645 179.093c-3.891 0-7.245 2.694-8.142 6.48-1.599 6.754-1.998 11.479-1.998 14.507 0 56.528 39.384 102.518 87.794 102.518s87.794-45.989 87.794-102.518c0-3.028-.399-7.753-1.998-14.507-.896-3.786-4.251-6.48-8.142-6.48H88.645z"/></svg>