<svg xmlns="http://www.w3.org/2000/svg" viewBox="0 0 512.001 512.001" style="enable-background:new 0 0 512.001 512.001" xml:space="preserve"><path style="fill:#ff6465" d="M256.001 512C397.385 512 512 397.385 512 255.999 512.001 114.615 397.386 0 256.001 0s-256 114.615-256 256.001S114.616 512 256.001 512z"/><path style="opacity:.1;enable-background:new" d="M68.873 256.001c0-129.706 96.466-236.866 221.564-253.688A258.21 258.21 0 0 0 256.001 0c-141.385 0-256 114.615-256 256.001s114.615 256 255.999 256c11.68 0 23.171-.798 34.436-2.313C165.339 492.865 68.873 385.705 68.873 256.001z"/><path style="fill:#fff" d="m313.391 256.001 67.398-67.398c4.899-4.899 4.899-12.842 0-17.74l-39.65-39.65c-4.899-4.899-12.842-4.899-17.74 0l-67.398 67.398-67.398-67.398c-4.899-4.899-12.842-4.899-17.74 0l-39.65 39.65c-4.899 4.899-4.899 12.842 0 17.74l67.398 67.398-67.398 67.398c-4.899 4.899-4.899 12.842 0 17.741l39.65 39.65c4.899 4.899 12.842 4.899 17.74 0l67.398-67.398L323.4 380.79c4.899 4.899 12.842 4.899 17.74 0l39.65-39.65c4.899-4.899 4.899-12.842 0-17.741l-67.399-67.398z"/></svg>