<svg width="1440" height="1024" fill="none" xmlns="http://www.w3.org/2000/svg"><g clip-path="url(#a)"><path fill="#242629" d="M0 0h1440v1024H0z"/><path d="M631.193 158.545c123.828 54.882 185.31 190.866 257.419 306.774 62.417 100.329 134.758 202.757 133.368 321.377-1.32 112.826-110.097 190.909-140.643 299.404-38.736 137.59 44.331 320.57-60.776 416.03-100.934 91.67-262.991 9.07-398.238.84-126.418-7.69-266.76 27.87-369.277-47.54-101.725-74.83-93.6-228.99-156.578-339.27-72.552-127.058-239.38-209.222-240.462-356.041-1.074-145.747 135.218-251.155 235.216-355.839 95.323-99.79 199.06-191.85 329.255-235.086 132.84-44.115 282.632-67.417 410.716-10.649Z" fill="url(#b)"/><path d="M1476.2 54.38c123.19 54.611 184.36 189.925 256.1 305.261 62.09 99.835 134.06 201.757 132.68 319.793-1.32 112.27-109.53 189.968-139.92 297.93-38.54 136.916 44.1 318.996-60.47 413.976-100.41 91.22-261.64 9.03-396.19.84-125.77-7.66-265.4 27.73-367.389-47.31-101.204-74.46-93.121-227.86-155.775-337.6-72.18-126.427-238.153-208.187-239.23-354.282-1.068-145.028 134.525-249.916 234.011-354.085 94.834-99.298 198.039-190.904 327.563-233.927C1199.74 21.079 1348.77-2.11 1476.2 54.38Z" fill="url(#c)"/></g><defs><radialGradient id="b" cx="0" cy="0" r="1" gradientUnits="userSpaceOnUse" gradientTransform="matrix(507.62627 406.3974 -380.986 475.88519 339 835)"><stop stop-color="#7F5AF0" stop-opacity=".2"/><stop offset=".872" stop-color="#7F5AF0" stop-opacity="0"/></radialGradient><radialGradient id="c" cx="0" cy="0" r="1" gradientUnits="userSpaceOnUse" gradientTransform="rotate(38.686 -443.472 2052.329) scale(646.981 606.553)"><stop stop-color="#2CB67D" stop-opacity=".2"/><stop offset=".872" stop-color="#2CB67D" stop-opacity="0"/></radialGradient><clipPath id="a"><path fill="#fff" d="M0 0h1440v1024H0z"/></clipPath></defs></svg>