<svg width="48" height="48" xmlns="http://www.w3.org/2000/svg"><defs><linearGradient id="b" x1=".5" x2=".5" y2="1" gradientUnits="objectBoundingBox"><stop offset="0" stop-color="#f80"/><stop offset="1" stop-color="#db2903"/></linearGradient><clipPath id="a"><path d="M0 0h48v48H0z"/></clipPath></defs><g clip-path="url(#a)"><path fill="rgba(255,255,255,0)" d="M0 0h48v48H0z"/><g data-name="Weather" stroke-miterlimit="10"><g transform="translate(19 8)" stroke="rgba(255,255,255,0.3)" stroke-width=".5" fill="url(#b)"><rect width="24" height="24" rx="12" stroke="none"/><rect x=".25" y=".25" width="23.5" height="23.5" rx="11.75" fill="none"/></g><g data-name="Icon" fill="rgba(255,169,125,0.7)"><path d="M12 39a7 7 0 0 1-1-13.929V25a7 7 0 0 1 13.128-3.386 7.007 7.007 0 0 1 9.393 3.837A7 7 0 1 1 36 39Z"/><path d="M36 38.5c3.584 0 6.5-2.916 6.5-6.5a6.507 6.507 0 0 0-8.802-6.081l-.462.175-.18-.46a6.493 6.493 0 0 0-2.35-2.975A6.46 6.46 0 0 0 27 21.5c-.93 0-1.826.192-2.667.57l-.42.189-.222-.403A6.508 6.508 0 0 0 18 18.5a6.507 6.507 0 0 0-6.5 6.497v.067l.007.44-.435.062a6.496 6.496 0 0 0-3.967 2.158A6.495 6.495 0 0 0 5.5 32c0 3.584 2.916 6.5 6.5 6.5h24m0 .5H12a7 7 0 0 1-.999-13.93L11 25a7 7 0 0 1 13.128-3.386 7.002 7.002 0 0 1 9.393 3.837A7 7 0 1 1 36 39Z" fill="rgba(255,255,255,0.3)"/></g></g></g></svg>