<svg xmlns="http://www.w3.org/2000/svg" viewBox="0 0 512 512" style="enable-background:new 0 0 512 512" xml:space="preserve"><path style="fill:#e8f4fc" d="M345.169 152.449c0-31.721-25.807-57.528-57.528-57.528s-57.528 25.807-57.528 57.528h34.517c0-12.688 10.323-23.011 23.011-23.011 12.688 0 23.011 10.323 23.011 23.011 0 12.688-10.323 23.011-23.011 23.011H46.022v34.517H287.64c31.721.001 57.529-25.807 57.529-57.528z"/><path style="fill:#d1e5f5" d="M431.461 106.427c-34.893 0-63.281 28.388-63.281 63.281 0 25.377 20.646 46.022 46.022 46.022 25.377 0 46.022-20.646 46.022-46.022h-34.517c0 6.344-5.161 11.506-11.506 11.506s-11.506-5.161-11.506-11.506c0-15.861 12.904-28.764 28.764-28.764 25.377 0 46.022 20.646 46.022 46.022s-20.646 46.022-46.022 46.022H0v34.517h431.461c44.411 0 80.539-36.13 80.539-80.539s-36.129-80.539-80.539-80.539z"/><path style="fill:#b4d8f1" d="M345.169 290.517H46.022v34.517h299.146c15.861 0 28.764 12.904 28.764 28.764s-12.904 28.764-28.764 28.764-28.764-12.904-28.764-28.764h-34.517c0 34.893 28.388 63.281 63.281 63.281s63.281-28.388 63.281-63.281-28.387-63.281-63.28-63.281z"/></svg>