<svg width="1440" height="1024" viewBox="0 0 1440 1024" fill="none" xmlns="http://www.w3.org/2000/svg">
    <g clip-path="url(#clip0_333_7)">
        <rect width="1440" height="1024" fill="#242629" />
        <g opacity="0.5" filter="url(#filter0_f_333_7)">
            <path
                d="M862.125 -258.66C702.634 -238.328 607.985 -160.335 650.72 -84.4576C693.456 -8.57974 857.393 36.4495 1016.88 16.1181C1176.38 -4.21329 1271.03 -82.2063 1228.29 -158.084C1185.55 -233.962 1021.62 -278.991 862.125 -258.66Z"
                fill="url(#paint0_linear_333_7)" />
            <path
                d="M512.559 15.6114C718.19 15.6114 884.887 -48.1011 884.887 -126.694C884.887 -205.288 718.19 -269 512.559 -269C306.928 -269 140.231 -205.288 140.231 -126.694C140.231 -48.1011 306.928 15.6114 512.559 15.6114Z"
                fill="url(#paint1_linear_333_7)" />
        </g>
    </g>
    <defs>
        <filter id="filter0_f_333_7" x="20.2314" y="-389" width="1338.32" height="530" filterUnits="userSpaceOnUse"
            color-interpolation-filters="sRGB">
            <feFlood flood-opacity="0" result="BackgroundImageFix" />
            <feBlend mode="normal" in="SourceGraphic" in2="BackgroundImageFix" result="shape" />
            <feGaussianBlur stdDeviation="60" result="effect1_foregroundBlur_333_7" />
        </filter>
        <linearGradient id="paint0_linear_333_7" x1="668.33" y1="-90.1424" x2="1206.91" y2="3.71898"
            gradientUnits="userSpaceOnUse">
            <stop stop-color="#001AFF" />
            <stop offset="1" stop-color="#6EE5C2" />
        </linearGradient>
        <linearGradient id="paint1_linear_333_7" x1="190.741" y1="-101.254" x2="616.015" y2="-379.5"
            gradientUnits="userSpaceOnUse">
            <stop stop-color="#FFC83A" />
            <stop offset="0.504191" stop-color="#FF008A" />
            <stop offset="1" stop-color="#6100FF" />
        </linearGradient>
        <clipPath id="clip0_333_7">
            <rect width="1440" height="1024" fill="white" />
        </clipPath>
    </defs>
</svg>