<svg width="213" height="43" viewBox="0 0 213 43" fill="none" xmlns="http://www.w3.org/2000/svg">
<g filter="url(#filter0_d_31_2)">
<path d="M13.576 29C12.64 29 12.016 28.508 11.704 27.524L4.468 3.476C4.228 2.684 4.24 2.06 4.504 1.604C4.792 1.124 5.248 0.883999 5.872 0.883999C6.28 0.883999 6.652 1.004 6.988 1.244C7.324 1.46 7.564 1.808 7.708 2.288L13.612 22.808L19.048 2.504C19.144 2.144 19.36 1.844 19.696 1.604C20.032 1.364 20.416 1.244 20.848 1.244C21.232 1.244 21.592 1.352 21.928 1.568C22.288 1.76 22.516 2.06 22.612 2.468L28.12 22.952L34.096 2.108C34.336 1.292 34.948 0.883999 35.932 0.883999C36.604 0.883999 37.036 1.148 37.228 1.676C37.42 2.18 37.42 2.78 37.228 3.476L29.992 27.488C29.824 27.944 29.572 28.316 29.236 28.604C28.924 28.868 28.552 29 28.12 29C27.664 29 27.268 28.856 26.932 28.568C26.62 28.28 26.392 27.932 26.248 27.524L20.884 6.788L15.448 27.488C15.28 27.944 15.028 28.316 14.692 28.604C14.38 28.868 14.008 29 13.576 29ZM46.3045 29.144C44.3125 29.144 42.5365 28.724 40.9765 27.884C39.4405 27.02 38.2285 25.844 37.3405 24.356C36.4765 22.844 36.0445 21.116 36.0445 19.172C36.0445 17.204 36.4525 15.476 37.2685 13.988C38.1085 12.476 39.2605 11.3 40.7245 10.46C42.1885 9.596 43.8685 9.164 45.7645 9.164C47.6365 9.164 49.2445 9.584 50.5885 10.424C51.9325 11.24 52.9525 12.38 53.6485 13.844C54.3685 15.284 54.7285 16.952 54.7285 18.848C54.7285 19.304 54.5725 19.688 54.2605 20C53.9485 20.288 53.5525 20.432 53.0725 20.432H39.3925C39.6565 22.088 40.4125 23.444 41.6605 24.5C42.9325 25.532 44.4805 26.048 46.3045 26.048C47.0485 26.048 47.8045 25.916 48.5725 25.652C49.3645 25.364 50.0005 25.04 50.4805 24.68C50.8405 24.416 51.2245 24.284 51.6325 24.284C52.0645 24.26 52.4365 24.38 52.7485 24.644C53.1565 25.004 53.3725 25.4 53.3965 25.832C53.4205 26.264 53.2285 26.636 52.8205 26.948C52.0045 27.596 50.9845 28.124 49.7605 28.532C48.5605 28.94 47.4085 29.144 46.3045 29.144ZM45.7645 12.26C43.9885 12.26 42.5605 12.752 41.4805 13.736C40.4005 14.72 39.7165 15.992 39.4285 17.552H51.4165C51.2005 16.016 50.6125 14.756 49.6525 13.772C48.6925 12.764 47.3965 12.26 45.7645 12.26ZM66.9168 29.144C65.1648 29.144 63.5928 28.712 62.2008 27.848C60.8088 26.96 59.7048 25.772 58.8888 24.284C58.0968 22.772 57.7008 21.068 57.7008 19.172C57.7008 17.276 58.1328 15.572 58.9968 14.06C59.8848 12.548 61.0728 11.36 62.5608 10.496C64.0728 9.608 65.7648 9.164 67.6368 9.164C69.5088 9.164 71.1888 9.608 72.6768 10.496C74.1648 11.36 75.3408 12.548 76.2048 14.06C77.0928 15.572 77.5368 17.276 77.5368 19.172V27.2C77.5368 27.728 77.3568 28.172 76.9968 28.532C76.6608 28.868 76.2288 29.036 75.7008 29.036C75.1728 29.036 74.7288 28.868 74.3688 28.532C74.0328 28.172 73.8648 27.728 73.8648 27.2V25.868C73.0248 26.876 72.0048 27.68 70.8048 28.28C69.6288 28.856 68.3328 29.144 66.9168 29.144ZM67.6368 25.904C68.8608 25.904 69.9528 25.616 70.9128 25.04C71.8728 24.44 72.6288 23.636 73.1808 22.628C73.7328 21.596 74.0088 20.444 74.0088 19.172C74.0088 17.876 73.7328 16.724 73.1808 15.716C72.6288 14.684 71.8728 13.88 70.9128 13.304C69.9528 12.704 68.8608 12.404 67.6368 12.404C66.4368 12.404 65.3448 12.704 64.3608 13.304C63.4008 13.88 62.6328 14.684 62.0568 15.716C61.5048 16.724 61.2288 17.876 61.2288 19.172C61.2288 20.444 61.5048 21.596 62.0568 22.628C62.6328 23.636 63.4008 24.44 64.3608 25.04C65.3448 25.616 66.4368 25.904 67.6368 25.904ZM90.1657 29C88.9657 29 87.8857 28.7 86.9257 28.1C85.9657 27.476 85.2097 26.636 84.6577 25.58C84.1057 24.524 83.8297 23.336 83.8297 22.016V13.124H82.1737C81.6697 13.124 81.2617 12.98 80.9497 12.692C80.6377 12.404 80.4817 12.044 80.4817 11.612C80.4817 11.132 80.6377 10.748 80.9497 10.46C81.2617 10.172 81.6697 10.028 82.1737 10.028H83.8297V4.844C83.8297 4.316 83.9977 3.884 84.3337 3.548C84.6697 3.212 85.1017 3.044 85.6297 3.044C86.1577 3.044 86.5897 3.212 86.9257 3.548C87.2617 3.884 87.4297 4.316 87.4297 4.844V10.028H90.4897C90.9937 10.028 91.4017 10.172 91.7137 10.46C92.0257 10.748 92.1817 11.132 92.1817 11.612C92.1817 12.044 92.0257 12.404 91.7137 12.692C91.4017 12.98 90.9937 13.124 90.4897 13.124H87.4297V22.016C87.4297 22.976 87.6937 23.78 88.2217 24.428C88.7497 25.076 89.3977 25.4 90.1657 25.4H91.3897C91.8217 25.4 92.1817 25.568 92.4697 25.904C92.7817 26.24 92.9377 26.672 92.9377 27.2C92.9377 27.728 92.7337 28.16 92.3257 28.496C91.9417 28.832 91.4377 29 90.8137 29H90.1657ZM99.2869 29.036C98.7589 29.036 98.3149 28.868 97.9549 28.532C97.6189 28.172 97.4509 27.728 97.4509 27.2V11.144C97.4509 10.592 97.6189 10.148 97.9549 9.812C98.3149 9.476 98.7589 9.308 99.2869 9.308C99.8389 9.308 100.283 9.476 100.619 9.812C100.955 10.148 101.123 10.592 101.123 11.144V11.54C101.867 10.796 102.767 10.208 103.823 9.776C104.879 9.344 106.019 9.128 107.243 9.128C108.899 9.128 110.375 9.488 111.671 10.208C112.991 10.904 114.023 11.936 114.767 13.304C115.535 14.672 115.919 16.352 115.919 18.344V27.2C115.919 27.728 115.739 28.172 115.379 28.532C115.043 28.868 114.611 29.036 114.083 29.036C113.555 29.036 113.111 28.868 112.751 28.532C112.415 28.172 112.247 27.728 112.247 27.2V18.344C112.247 16.304 111.695 14.816 110.591 13.88C109.511 12.92 108.155 12.44 106.523 12.44C105.515 12.44 104.603 12.644 103.787 13.052C102.971 13.46 102.323 14.012 101.843 14.708C101.363 15.38 101.123 16.16 101.123 17.048V27.2C101.123 27.728 100.955 28.172 100.619 28.532C100.283 28.868 99.8389 29.036 99.2869 29.036ZM99.2869 21.836C98.7589 21.836 98.3149 21.668 97.9549 21.332C97.6189 20.972 97.4509 20.528 97.4509 20V2.72C97.4509 2.168 97.6189 1.724 97.9549 1.388C98.3149 1.052 98.7589 0.883999 99.2869 0.883999C99.8389 0.883999 100.283 1.052 100.619 1.388C100.955 1.724 101.123 2.168 101.123 2.72V20C101.123 20.528 100.955 20.972 100.619 21.332C100.283 21.668 99.8389 21.836 99.2869 21.836ZM131.277 29.144C129.285 29.144 127.509 28.724 125.949 27.884C124.413 27.02 123.201 25.844 122.313 24.356C121.449 22.844 121.017 21.116 121.017 19.172C121.017 17.204 121.425 15.476 122.241 13.988C123.081 12.476 124.233 11.3 125.697 10.46C127.161 9.596 128.841 9.164 130.737 9.164C132.609 9.164 134.217 9.584 135.561 10.424C136.905 11.24 137.925 12.38 138.621 13.844C139.341 15.284 139.701 16.952 139.701 18.848C139.701 19.304 139.545 19.688 139.233 20C138.921 20.288 138.525 20.432 138.045 20.432H124.365C124.629 22.088 125.385 23.444 126.633 24.5C127.905 25.532 129.453 26.048 131.277 26.048C132.021 26.048 132.777 25.916 133.545 25.652C134.337 25.364 134.973 25.04 135.453 24.68C135.813 24.416 136.197 24.284 136.605 24.284C137.037 24.26 137.409 24.38 137.721 24.644C138.129 25.004 138.345 25.4 138.369 25.832C138.393 26.264 138.201 26.636 137.793 26.948C136.977 27.596 135.957 28.124 134.733 28.532C133.533 28.94 132.381 29.144 131.277 29.144ZM130.737 12.26C128.961 12.26 127.533 12.752 126.453 13.736C125.373 14.72 124.689 15.992 124.401 17.552H136.389C136.173 16.016 135.585 14.756 134.625 13.772C133.665 12.764 132.369 12.26 130.737 12.26ZM146.185 29C144.985 29 144.385 28.4 144.385 27.2V11.108C144.385 9.908 144.985 9.308 146.185 9.308C147.385 9.308 147.985 9.908 147.985 11.108V11.792C148.705 10.952 149.581 10.292 150.613 9.812C151.669 9.332 152.809 9.092 154.033 9.092C155.473 9.092 156.541 9.332 157.237 9.812C157.957 10.268 158.233 10.82 158.065 11.468C157.945 11.972 157.705 12.308 157.345 12.476C156.985 12.62 156.565 12.644 156.085 12.548C154.549 12.236 153.169 12.212 151.945 12.476C150.721 12.74 149.749 13.232 149.029 13.952C148.333 14.672 147.985 15.584 147.985 16.688V27.2C147.985 28.4 147.385 29 146.185 29ZM159.828 29C159.524 29 159.308 28.88 159.18 28.64C159.068 28.4 159.068 28.176 159.18 27.968L166.452 10.76C166.58 10.424 166.812 10.256 167.148 10.256C167.468 10.256 167.7 10.424 167.844 10.76L175.14 27.968C175.268 28.192 175.26 28.424 175.116 28.664C174.972 28.888 174.764 29 174.492 29C174.172 29 173.948 28.848 173.82 28.544L172.044 24.296H162.276L160.5 28.544C160.388 28.848 160.164 29 159.828 29ZM162.828 23H171.492L167.148 12.632L162.828 23ZM178.407 34.616C178.199 34.616 178.023 34.544 177.879 34.4C177.751 34.272 177.687 34.104 177.687 33.896V22.304C177.719 21.04 178.023 19.92 178.599 18.944C179.191 17.952 179.991 17.168 180.999 16.592C182.007 16.016 183.135 15.728 184.383 15.728C185.663 15.728 186.807 16.024 187.815 16.616C188.839 17.192 189.639 17.992 190.215 19.016C190.807 20.024 191.103 21.168 191.103 22.448C191.103 23.712 190.807 24.856 190.215 25.88C189.639 26.888 188.839 27.688 187.815 28.28C186.807 28.856 185.663 29.144 184.383 29.144C183.231 29.144 182.191 28.896 181.263 28.4C180.351 27.904 179.639 27.24 179.127 26.408V33.896C179.127 34.104 179.063 34.272 178.935 34.4C178.807 34.544 178.631 34.616 178.407 34.616ZM184.383 27.8C185.391 27.8 186.287 27.568 187.071 27.104C187.871 26.624 188.503 25.984 188.967 25.184C189.431 24.368 189.663 23.456 189.663 22.448C189.663 21.424 189.431 20.512 188.967 19.712C188.503 18.896 187.871 18.256 187.071 17.792C186.287 17.312 185.391 17.072 184.383 17.072C183.391 17.072 182.495 17.312 181.695 17.792C180.895 18.256 180.263 18.896 179.799 19.712C179.351 20.512 179.127 21.424 179.127 22.448C179.127 23.456 179.351 24.368 179.799 25.184C180.263 25.984 180.895 26.624 181.695 27.104C182.495 27.568 183.391 27.8 184.383 27.8ZM195.423 34.616C195.215 34.616 195.039 34.544 194.895 34.4C194.767 34.272 194.703 34.104 194.703 33.896V22.304C194.735 21.04 195.039 19.92 195.615 18.944C196.207 17.952 197.007 17.168 198.015 16.592C199.023 16.016 200.151 15.728 201.399 15.728C202.679 15.728 203.823 16.024 204.831 16.616C205.855 17.192 206.655 17.992 207.231 19.016C207.823 20.024 208.119 21.168 208.119 22.448C208.119 23.712 207.823 24.856 207.231 25.88C206.655 26.888 205.855 27.688 204.831 28.28C203.823 28.856 202.679 29.144 201.399 29.144C200.247 29.144 199.207 28.896 198.279 28.4C197.367 27.904 196.655 27.24 196.143 26.408V33.896C196.143 34.104 196.079 34.272 195.951 34.4C195.823 34.544 195.647 34.616 195.423 34.616ZM201.399 27.8C202.407 27.8 203.303 27.568 204.087 27.104C204.887 26.624 205.519 25.984 205.983 25.184C206.447 24.368 206.679 23.456 206.679 22.448C206.679 21.424 206.447 20.512 205.983 19.712C205.519 18.896 204.887 18.256 204.087 17.792C203.303 17.312 202.407 17.072 201.399 17.072C200.407 17.072 199.511 17.312 198.711 17.792C197.911 18.256 197.279 18.896 196.815 19.712C196.367 20.512 196.143 21.424 196.143 22.448C196.143 23.456 196.367 24.368 196.815 25.184C197.279 25.984 197.911 26.624 198.711 27.104C199.511 27.568 200.407 27.8 201.399 27.8Z" fill="#94A1B2"/>
</g>
<defs>
<filter id="filter0_d_31_2" x="0.10791" y="0.884033" width="212.011" height="41.7319" filterUnits="userSpaceOnUse" color-interpolation-filters="sRGB">
<feFlood flood-opacity="0" result="BackgroundImageFix"/>
<feColorMatrix in="SourceAlpha" type="matrix" values="0 0 0 0 0 0 0 0 0 0 0 0 0 0 0 0 0 0 127 0" result="hardAlpha"/>
<feOffset dy="4"/>
<feGaussianBlur stdDeviation="2"/>
<feComposite in2="hardAlpha" operator="out"/>
<feColorMatrix type="matrix" values="0 0 0 0 0 0 0 0 0 0 0 0 0 0 0 0 0 0 0.25 0"/>
<feBlend mode="normal" in2="BackgroundImageFix" result="effect1_dropShadow_31_2"/>
<feBlend mode="normal" in="SourceGraphic" in2="effect1_dropShadow_31_2" result="shape"/>
</filter>
</defs>
</svg>
